<?xml version="1.0" encoding="UTF-8"?>
<svg width="183px" height="63px" viewBox="0 0 183 63" version="1.1" xmlns="http://www.w3.org/2000/svg" xmlns:xlink="http://www.w3.org/1999/xlink">
    <!-- Generator: Sketch 42 (36781) - http://www.bohemiancoding.com/sketch -->
    <title>Page 1</title>
    <desc>Created with Sketch.</desc>
    <defs>
        <polygon id="path-1" points="3.04889203 3.14913336 3.04889203 0.0767294324 0.00945964606 0.0767294324 0.00945964606 3.14913336 3.04889203 3.14913336"></polygon>
        <polygon id="path-3" points="28.285432 0.0871192041 0.199261833 0.0871192041 0.199261833 61.3060743 28.285432 61.3060743"></polygon>
    </defs>
    <g id="Symbols" stroke="none" stroke-width="1" fill="none" fill-rule="evenodd">
        <g id="footer/desktop" transform="translate(-240.000000, -84.000000)">
            <g id="footer" transform="translate(0.000000, -1.000000)">
                <g id="sidebar" transform="translate(240.000000, 85.554348)">
                    <g id="Page-1" transform="translate(0.000000, -0.000000)">
                        <path d="M12.1591725,40.0234013 L11.9888989,40.0234013 L8.22203576,49.7801068 L7.53869658,49.7801068 L3.77247478,40.0234013 L3.61695179,40.0234013 L2.9554179,46.9664792 C2.80342223,48.3119869 3.16192678,49.1599472 4.50583785,49.2144773 L4.50583785,49.7801068 L0.000160332986,49.7801068 L0.000160332986,49.2144773 C1.19464106,49.1828563 1.76350249,48.6791782 1.94564076,46.9355035 L2.80630822,39.178345 C2.51097486,38.7908259 1.86451227,38.6588564 1.06380935,38.6607924 L1.06380935,38.0954856 L5.50695701,38.0954856 L8.56194169,46.2956613 L11.7281975,38.0954856 L16.1934711,38.0954856 L16.1934711,38.6607924 C15.2677084,38.6875735 14.4910554,38.9056942 14.4910554,39.9762924 C14.4910554,40.129235 14.551982,41.0010724 14.551982,41.1236846 L15.0990381,46.7983714 C15.3119603,48.9698982 16.1075326,49.106385 17.136229,49.2144773 L17.136229,49.7801068 L11.1256661,49.7801068 L11.1256661,49.2144773 C12.2601823,49.144782 12.7976185,48.9089148 12.7976185,47.5321087 L12.7671552,46.6147757 L12.1591725,40.0234013 Z" id="Fill-1" fill="#FEFEFE"></path>
                        <path d="M42.7476916,41.1692447 C42.7476916,39.9457039 42.7153044,38.8270288 40.5588257,38.6611796 L40.5588257,38.0955501 L44.5469484,38.0955501 L51.9543322,46.6990555 L51.9543322,40.6494334 C51.9543322,38.9060814 51.2273825,38.7186137 50.0088518,38.6611796 L50.0088518,38.0955501 L54.7742688,38.0955501 L54.7742688,38.6611796 C53.5425908,38.7302296 52.8582896,38.9060814 52.8582896,40.6494334 L52.8582896,50.0399156 L51.7366,50.0399156 L43.6747369,40.5800607 L43.6747369,47.2572637 C43.6747369,48.3569017 44.0887167,49.2148645 45.32296,49.2148645 L45.787605,49.2148645 L45.787605,49.780494 L40.8628171,49.780494 L40.8628171,49.2148645 C42.0403025,49.1561397 42.7476916,48.8250867 42.7476916,47.195635 L42.7476916,41.1692447 Z" id="Fill-3" fill="#FEFEFE"></path>
                        <path d="M92.4412005,41.1692447 C92.4412005,39.9457039 92.4084926,38.8270288 90.2526553,38.6611796 L90.2526553,38.0955501 L94.2398159,38.0955501 L101.647841,46.6990555 L101.647841,40.6494334 C101.647841,38.9060814 100.920891,38.7186137 99.7026814,38.6611796 L99.7026814,38.0955501 L104.467457,38.0955501 L104.467457,38.6611796 C103.235458,38.7302296 102.551799,38.9060814 102.551799,40.6494334 L102.551799,50.0399156 L101.429788,50.0399156 L93.3682458,40.5800607 L93.3682458,47.2572637 C93.3682458,48.3569017 93.7819049,49.2148645 95.0164689,49.2148645 L95.4807932,49.2148645 L95.4807932,49.780494 L90.556326,49.780494 L90.556326,49.2148645 C91.7334907,49.1561397 92.4412005,48.8250867 92.4412005,47.195635 L92.4412005,41.1692447 Z" id="Fill-5" fill="#FEFEFE"></path>
                        <path d="M28.6806528,38.6927038 C25.8231984,38.6927038 24.3458902,41.007816 24.3458902,43.9753543 C24.3458902,47.0964804 26.0265006,49.1386191 28.6806528,49.1386191 C30.6267746,49.1386191 33.0740972,47.9270168 33.0740972,43.9156615 C33.0740972,39.6523057 30.4792682,38.6927038 28.6806528,38.6927038 M28.6514722,50.0333656 C24.2070419,50.0333656 21.8267384,47.0054892 21.8267384,43.9159841 C21.8267384,40.6428834 24.3773155,37.79828 28.5607237,37.79828 C32.6508182,37.79828 35.5983797,40.3983043 35.5983797,43.9463145 C35.5983797,47.0664727 32.9910447,50.0333656 28.6514722,50.0333656" id="Fill-7" fill="#FEFEFE"></path>
                        <path d="M131.579989,38.6871863 C128.722855,38.6871863 127.245547,41.0022985 127.245547,43.9698367 C127.245547,47.0903175 128.926158,49.1334242 131.579989,49.1334242 C133.526432,49.1334242 135.973754,47.9211766 135.973754,43.9101439 C135.973754,39.6467882 133.379246,38.6871863 131.579989,38.6871863 M131.55145,50.0284934 C127.106699,50.0284934 124.726395,46.9999717 124.726395,43.9101439 C124.726395,40.6373658 127.277293,37.7924398 131.46006,37.7924398 C135.550154,37.7924398 138.498037,40.3927867 138.498037,43.9411196 C138.498037,47.0609551 135.891022,50.0284934 131.55145,50.0284934" id="Fill-9" fill="#FEFEFE"></path>
                        <path d="M115.808482,47.1913113 C115.808482,48.9653164 116.477071,49.0879286 117.693357,49.2102182 L117.693357,49.7761703 L111.530157,49.7761703 L111.530157,49.2102182 C112.776906,49.0879286 113.445174,48.9653164 113.445174,47.1913113 L113.445174,38.901435 L111.871666,38.901435 C109.864939,38.901435 109.671577,40.3724589 109.590449,41.2094486 L108.945269,41.2094486 L109.082834,37.5097864 L109.599427,37.5097864 C109.815877,37.9273132 110.359726,38.0912264 111.392912,38.0912264 L117.861065,38.0912264 C118.894251,38.0912264 119.401865,37.9424784 119.654229,37.5097864 L120.171143,37.5097864 L120.316725,41.2094486 L119.671545,41.2094486 C119.576307,40.3192194 119.389039,38.901435 117.382632,38.901435 L115.808482,38.901435 L115.808482,47.1913113 Z" id="Fill-11" fill="#FEFEFE"></path>
                        <path d="M80.8627861,44.5465013 L79.1696698,39.5058487 L79.072508,39.5058487 L77.1975741,44.5465013 L80.8627861,44.5465013 Z M76.2253149,47.2985002 C76.1124405,47.5979321 75.9941147,48.0574052 75.9941147,48.2410009 C75.9941147,49.1347794 76.9301387,49.1693044 77.4476936,49.2125413 L77.4476936,49.7781708 L73.0122419,49.7781708 L73.0122419,49.2125413 C74.3535877,49.1460726 74.7056789,48.552694 75.3951107,46.7499718 L78.7669134,37.8786556 L80.8502802,37.8786556 L84.1226764,46.8416083 C84.8044122,48.6772422 85.1318122,49.1270355 86.5725644,49.2125413 L86.5725644,49.7781708 L80.7944843,49.7781708 L80.7944843,49.2125413 C81.4621108,49.2112507 82.1903433,49.1041263 82.1903433,48.4626709 C82.1903433,48.2177691 82.0595115,47.9089799 81.9729317,47.6369744 L81.1420862,45.387363 L76.9269321,45.387363 L76.2253149,47.2985002 Z" id="Fill-13" fill="#FEFEFE"></path>
                        <path d="M68.0458636,41.1897338 L67.3679757,41.1897338 C67.097013,39.85681 66.1750983,38.5832563 64.5887638,38.5832563 C63.1358263,38.5832563 62.5345776,39.3653932 62.5345776,40.1184903 C62.5345776,41.3865587 63.8909946,41.9183085 65.5074718,42.669147 C67.6642711,43.6703725 68.6721242,44.8697135 68.6721242,46.7285792 C68.6721242,48.3870707 67.4256956,50.0249118 64.5236686,50.0249118 C62.8812175,50.0249118 62.1776764,49.4357278 61.5530191,49.4357278 C61.2547997,49.4357278 61.0941461,49.6993441 61.0175069,49.9539258 L60.4454388,49.9539258 L60.4454388,46.2158666 L61.108576,46.2158666 C61.2288258,47.6104192 62.204933,49.1805008 64.1116128,49.1805008 C65.6440755,49.1805008 66.5207762,48.3415752 66.5207762,47.3022753 C66.5207762,46.3659052 65.9047769,45.4637375 63.4401383,44.3121506 C62.1311798,43.7007029 60.5015554,42.8940436 60.5015554,40.810604 C60.5015554,39.5254344 61.5921403,37.7895036 64.2385966,37.7895036 C65.6277215,37.7895036 66.4906336,38.2864057 66.9806112,38.2864057 C67.3804817,38.2864057 67.4628929,37.95987 67.5039381,37.8343538 L68.0458636,37.8343538 L68.0458636,41.1897338 Z" id="Fill-15" fill="#FEFEFE"></path>
                        <g id="Group-19" transform="translate(179.572942, 54.443049)">
                            <mask id="mask-2" fill="white">
                                <use xlink:href="#path-1"></use>
                            </mask>
                            <g id="Clip-18"></g>
                            <path d="M1.26903557,1.52194023 L1.43770587,1.52194023 C1.64806274,1.52194023 1.81031972,1.45321286 1.81031972,1.27607048 C1.81031972,1.13313045 1.70898928,1.02342478 1.46464181,1.02342478 C1.3771,1.02342478 1.3158528,1.02342478 1.26903557,1.03116871 L1.26903557,1.52194023 Z M1.26903557,2.50186994 L0.910210351,2.50186994 L0.910210351,0.799173499 C1.04521072,0.778200357 1.19464106,0.751741932 1.45149451,0.751741932 C1.74297987,0.751741932 1.91838416,0.799173499 2.0338239,0.887260694 C2.12874103,0.962441341 2.18293358,1.07827762 2.18293358,1.25542 C2.18293358,1.45966613 2.04087855,1.60325149 1.85745762,1.65036039 L1.85745762,1.66423493 C2.00688796,1.69133868 2.10180509,1.8281481 2.12874103,2.0798258 C2.16241096,2.3457007 2.19608088,2.44701711 2.22365816,2.50186994 L1.85072364,2.50186994 C1.81031972,2.4408865 1.78338378,2.29084787 1.74939319,2.05885266 C1.72277791,1.87557967 1.61407215,1.80039902 1.43129255,1.80039902 L1.26903557,1.80039902 L1.26903557,2.50186994 Z M1.52620968,0.383259965 C0.889687729,0.383259965 0.375339516,0.935337588 0.375339516,1.6164807 C0.375339516,2.30407708 0.889687729,2.84228017 1.532623,2.84228017 C2.17619959,2.84970143 2.69728179,2.30407708 2.69728179,1.6164807 C2.69728179,0.935337588 2.17619959,0.383259965 1.532623,0.383259965 L1.52620968,0.383259965 Z M1.53935698,0.0767294324 C2.37918115,0.0767294324 3.04905236,0.765616472 3.04905236,1.61002742 C3.04905236,2.46863558 2.37918115,3.14913336 1.532623,3.14913336 C0.693440156,3.14913336 0.00945964606,2.46863558 0.00945964606,1.61002742 C0.00945964606,0.765616472 0.693440156,0.0767294324 1.532623,0.0767294324 L1.53935698,0.0767294324 Z" id="Fill-17" fill="#FEFEFE" mask="url(#mask-2)"></path>
                        </g>
                        <g id="Group-22" transform="translate(149.430341, 0.235545)">
                            <mask id="mask-4" fill="white">
                                <use xlink:href="#path-3"></use>
                            </mask>
                            <g id="Clip-21"></g>
                            <path d="M23.1557385,44.9867114 C20.9687966,45.3703586 19.2295044,46.0821547 17.9500472,47.1069347 C17.7047377,46.8388012 17.4777062,46.5729263 17.2612567,46.3086647 C17.8730873,46.2389693 18.4425901,46.01859 18.9348124,45.6436547 C20.5926554,44.3801036 21.389831,41.4416051 21.241042,37.1463057 L21.2375147,37.0327281 L21.1307329,37.0695117 C16.6840579,38.5905485 15.3834368,41.1786342 15.2141251,43.427923 C15.1990538,43.4040459 15.1826999,43.3795234 15.1673079,43.3556463 C12.4737138,39.1929617 13.6624225,35.9992362 14.3002271,34.2833105 L14.4092535,33.9874279 C15.0262149,32.2853768 15.4571899,30.805641 15.7592573,29.5782282 C16.6568013,29.6682514 17.9016266,29.4369015 18.8966531,28.508598 C20.1039605,27.3815336 20.6465273,25.4791083 20.4647097,23.0065362 L20.4592584,22.9265156 L20.3794125,22.9284516 C20.3556833,22.9290969 17.9808311,23.0000829 16.5355896,24.7192352 C16.4182258,24.8592713 16.3108027,25.0060833 16.2120376,25.1593486 C16.3835939,24.0213136 16.4467651,22.5625509 16.2643062,21.0211864 C16.7212552,21.1121775 17.1730735,21.0660366 17.6146306,20.8801823 C19.8903969,19.9221937 21.1425976,15.6510941 21.1948661,15.4697571 L21.223726,15.371022 C21.2230847,15.3706993 21.1207923,15.3623101 21.1207923,15.3623101 L20.8530362,15.3403689 C19.9048269,15.2593803 18.7257381,15.1587092 17.7002484,15.7979061 C16.8427876,16.3332052 16.2171683,17.3050683 15.8054332,18.7428578 C15.3606695,17.2189171 14.6154418,15.7291787 13.4424457,14.4914407 C14.0103451,14.2174992 14.4926267,13.8170735 14.8793499,13.2872597 C16.5743902,10.9653716 15.9183076,6.9256218 15.9115736,6.88496617 L15.8923337,6.77203387 L15.7906825,6.82366006 C13.8743827,7.79971781 12.6016595,8.92968615 11.8997217,10.2784205 C11.3465729,11.3425654 11.164114,12.5238373 11.3424042,13.869345 C10.1174602,13.467306 8.68632801,13.3798642 7.33760695,13.6718748 L7.23852117,13.6934933 L7.27828375,13.7877111 C8.45352452,16.5610058 9.92794664,17.6945234 10.9576051,18.1569005 C12.0831426,18.6618692 12.9184775,18.5044093 12.9540714,18.4973107 L12.9656154,18.4950521 L12.9758767,18.4895668 C13.2773027,18.3346882 13.8910573,18.2824167 14.2322459,18.2649929 C14.6311544,19.4756271 14.9405971,20.8888942 15.0679014,22.3702434 C14.0824949,21.3206183 12.1235465,20.9353578 9.22665017,21.2289818 L9.150011,21.2367257 L9.150973,21.314165 C9.15770699,21.8839891 9.92121266,24.2568581 11.6441509,25.5991392 C12.6099968,26.3509457 13.6906411,26.6316631 14.8617132,26.4441955 C14.6253824,27.8461693 14.1815807,29.8592683 13.3497732,32.4431593 C13.301032,32.1111384 13.2093215,31.7652429 13.0563638,31.4167661 C12.3191528,29.738592 10.4535182,28.5173099 7.51044591,27.7871219 L7.43092075,27.7671167 L7.40975679,27.8471373 C6.98262972,29.4462587 7.46908,32.1185596 9.02142395,33.8225467 C9.9462246,34.8379695 11.0954914,35.3174477 12.368856,35.2319419 C12.1815871,35.7898274 11.9571209,36.5768042 11.8269305,37.4544496 C11.7820373,37.7561401 11.7538187,38.0484735 11.737144,38.3340309 C11.4729153,38.2227119 11.1836746,38.1294621 10.8662153,38.0571854 C9.916082,37.7129032 7.42899675,36.6736034 7.31131234,35.9982682 L7.1468107,35.9960095 C6.85949399,37.4144393 7.619793,40.5003951 9.46554632,42.1069377 C10.5307987,43.0345959 11.7890919,43.2865963 13.1121597,42.8535816 C13.3638825,43.2459406 13.6075886,43.6202306 13.8452021,43.9845179 C14.4717834,44.9454105 15.0775214,45.8750046 15.7784972,47.0572445 C14.0116277,45.0225271 12.3355067,44.0590532 10.7796355,44.1990893 C8.53978367,44.4001088 7.19266593,46.8494491 6.7171183,47.8935889 L6.68761703,47.9581216 L6.74661957,47.9984546 C9.99015584,50.2148316 14.1517588,49.7624571 16.1068592,49.3742927 C14.7610241,52.1082224 15.7227014,55.0534968 15.7329627,55.0847952 L15.7544473,55.1490052 L15.8217871,55.141584 C18.2322332,54.8615119 22.3813302,51.8823577 23.253221,45.0802839 L23.2679716,44.9670289 L23.1557385,44.9867114 Z M14.3441584,37.619976 L14.3165811,37.7193565 L14.4182322,37.7271004 C16.819379,37.911664 18.5747045,37.4834893 19.7845772,36.4180537 C21.0374191,35.3148664 21.7178723,33.5221468 21.8637753,30.9372878 L21.8682646,30.8582352 L21.7900221,30.8485552 C21.7355089,30.8417793 20.4262298,30.6901274 18.8421399,31.4487098 C17.3850337,32.146954 15.421596,33.7844724 14.3441584,37.619976 L14.3441584,37.619976 Z M26.3723388,50.504261 L26.3665668,50.4513442 L26.1478726,48.4040429 C26.1514,48.4446985 26.0840601,47.4208865 26.0840601,47.4208865 L26.0786088,47.335058 L26.0584068,47.2514881 L25.5918379,45.3371242 L25.6383344,43.4066272 L25.8618386,41.1860555 L25.8682519,41.1218454 L25.8663279,41.0576353 L25.7977054,38.7228406 L25.7236316,36.2183249 L25.6514817,33.7709205 L26.1247847,31.8539754 L26.1712813,31.6642491 L26.1424213,31.4716189 L25.7239522,28.6560553 C25.7204249,28.6344368 25.3125378,26.2493066 25.3125378,26.2493066 L24.8552681,23.5834589 L24.7523344,20.4613648 L24.6381773,16.9956338 C24.6372153,16.975306 24.4999702,14.4123881 24.4999702,14.4123881 L24.3457299,11.531969 L24.1982236,8.78545547 L24.1962996,8.74867181 L24.1914896,8.71253347 L23.8663343,6.17607398 L23.534445,3.59347357 L23.4244566,2.73647873 L22.5650718,2.73647873 L20.3723579,2.73647873 L18.8373299,2.73647873 L18.6802036,2.73647873 L18.5301319,2.78616895 L17.0598784,3.27629514 L14.2806665,3.77577857 C14.2925311,3.77319726 12.7575031,4.02906959 12.7575031,4.02906959 L12.6821466,4.04197614 L12.6093555,4.06585326 L11.1442327,4.55501145 L9.44374103,4.85444338 L6.99289104,4.29623515 L6.94831847,4.28623258 L6.90214257,4.28010196 L4.92908486,4.02390697 L4.05494943,3.91065201 L3.85292987,4.77377745 L3.19524397,7.58934107 L3.17696601,7.66710302 L3.17151469,7.7464783 L2.96244048,10.8011357 L2.73316431,14.1452225 C2.73572964,14.1116655 2.42051499,17.1801974 2.42051499,17.1801974 L2.07804374,20.5104097 L2.07579908,20.5317055 L2.07451641,20.553324 L1.9436847,22.7787356 L1.80291234,25.1599939 L1.79297169,25.3361683 L1.84331625,25.5042761 L2.46252224,27.5515774 L3.12598012,29.747304 C3.14650275,30.0648051 3.20518462,31.0153724 3.25520851,32.0630615 C3.30908039,33.1817366 3.33569567,34.0645445 3.33569567,34.6882535 L3.33569567,36.8597803 L3.33569567,39.0393737 L3.33569567,39.1126184 L3.34691898,39.1855404 L3.76121941,41.9649657 L4.03218215,44.9092721 L3.56272717,48.6415234 L3.54797654,48.7634902 L3.56240651,48.8848118 L4.00171888,52.4683151 C3.99819156,52.4373393 4.21239643,54.8140803 4.21239643,54.8140803 L4.43654194,57.3002043 L4.47854918,57.7693573 L4.86944099,58.0297469 L6.01742516,58.7980092 L6.34386312,59.0161299 L6.72994494,58.9467572 L9.58034473,58.4353352 L9.66019056,58.4208153 L9.73682973,58.3930663 L12.4560771,57.4160405 L14.3954649,57.3034309 C14.3951442,57.3034309 16.7013739,57.1688801 16.7013739,57.1688801 L16.7533218,57.1659761 L16.804949,57.1575869 L18.1908673,56.926237 L21.5479193,57.4160405 L21.5822306,57.4208805 L21.6168625,57.4234618 L25.1050669,57.6796568 L26.0584068,57.7496748 L26.1491553,56.7926542 L26.3678495,54.4894806 L26.3723388,54.4426944 L26.3723388,54.3959081 L26.3723388,50.5568552 L26.3723388,50.504261 Z M28.285432,48.4408265 L27.8278417,51.8365395 L27.6081855,54.9076528 L26.7318054,56.9552767 L27.6081855,58.4847028 L26.0737988,59.2526424 L24.1000998,58.9970928 L22.784728,58.7408978 L22.4916393,58.7699375 L21.5296414,58.929656 L20.5916934,58.9970928 L17.249392,59.1745578 L13.9901431,59.3471829 L10.9441371,59.5088374 L8.81010508,59.7553525 L7.34594427,59.8953885 L6.24798399,60.2732278 L5.19010696,60.0260674 L4.31276487,60.7943297 L3.43606412,61.3060743 L2.22587075,61.0072877 L2.56257002,58.4511457 L2.77837822,55.9314648 C2.77837822,55.9314648 2.77837822,54.6521031 2.55936336,53.1159011 C2.4618809,52.437662 2.46733223,49.887328 2.46733223,49.887328 L2.55936336,46.7174796 L2.10946901,43.1772133 L1.6817006,39.8073134 L1.45627243,37.3515198 L1.3302507,35.9798764 L1.02369404,32.6409522 L0.791852542,29.5240207 L0.585022992,26.7539526 L0.391340748,23.9241918 L0.199261833,21.1231481 L0.291613632,18.2688648 L0.379796773,15.5355805 L0.470545242,12.738086 L0.554559725,10.1412884 L0.637612211,7.55836535 L1.22924092,5.21195478 L1.73428982,3.2072451 L4.14633924,2.18375578 L6.99641836,2.18375578 L10.5051454,2.43995078 L12.2595089,2.6958231 L15.1099087,1.92756079 L17.3693211,1.53197507 L19.4953365,1.15962114 L21.0306851,1.4161388 L20.7796037,0.0870869377 L22.3146317,0.0870869377 L24.1000998,1.15962114 L27.2580182,1.13477603 L27.9157041,3.43794966 L26.2928137,3.97518475 L26.4076121,6.24544668 L26.5124699,8.32662766 L26.6259856,11.9049683 L26.7318054,15.2364712 L26.7318054,18.7047835 L26.7318054,21.8914104 L27.3891706,24.962201 L27.34556,28.0510608 L27.2734102,31.0066605 L27.2022224,33.9209592 L27.3118901,36.8697829 L27.4212372,39.8073134 L27.6601334,42.2982773 L28.0045286,45.5142666 L28.285432,48.4408265 Z M21.7941908,55.4655383 L18.3200957,54.9586336 L18.1697034,54.9370152 L18.0199524,54.9615376 L16.5346276,55.2093434 L14.2829112,55.3403448 L12.2030717,55.461989 L12.0629407,55.469733 L11.9308263,55.5174872 L9.15610366,56.5141954 L6.77227285,56.9423702 L6.34001512,56.6529408 L6.15819752,54.6366153 L5.94399265,52.2595516 C5.94078599,52.2314799 5.59286342,49.3901032 5.51686558,48.7670395 L5.9840759,45.0493082 L5.99754387,44.9425065 L5.98760323,44.8353821 L5.70381384,41.7545889 L5.70124852,41.7268399 L5.69740052,41.6997361 L5.28983408,38.9651611 L5.28983408,36.8597803 L5.28983408,34.6882535 C5.28983408,34.0329235 5.26193614,33.1184945 5.20678159,31.968521 C5.14489306,30.6694769 5.06921589,29.5159541 5.06857456,29.5043382 L5.06087858,29.3917286 L5.02817065,29.2833135 L4.33168417,26.9798173 L3.76346407,25.1003011 L3.89365445,22.8952172 L4.0241655,20.6849708 L4.3634301,17.3825076 L4.67896541,14.3139756 C4.68217207,14.2804186 4.91144824,10.9366545 4.91144824,10.9366545 L5.11475046,7.96266299 L5.55310084,6.08701879 L6.60648854,6.22382821 L9.20292089,6.81559347 L9.39371714,6.85915307 L9.58707872,6.82495072 L11.5505164,6.47970054 L11.6213836,6.46711665 L11.6896855,6.44420753 L13.1528843,5.95601732 L14.6112731,5.71305154 C14.6237791,5.71111556 17.4741789,5.19872557 17.4741789,5.19872557 L17.5431221,5.18646435 L17.6098206,5.16452322 L18.9947769,4.70246877 L20.3723579,4.70246877 L21.7063283,4.70246877 L21.9282292,6.42807434 L22.2492158,8.92871816 L22.3944775,11.6381254 L22.5487178,14.5182218 L22.6859629,17.0811397 C22.6850009,17.0608119 22.7997993,20.5265429 22.7997993,20.5265429 L22.9043364,23.7154284 L22.9069017,23.7828651 L22.9184457,23.8499792 L23.386618,26.5832635 L23.7951464,28.9683938 C23.7922604,28.9503246 24.0882351,30.9411597 24.1815489,31.5697087 L23.7233173,33.4272837 L23.69093,33.5586078 L23.6950987,33.6934813 L23.7710965,36.276727 L23.844529,38.7812428 L23.9118689,41.050214 L23.69093,43.2459406 L23.687082,43.2836923 L23.68612,43.3211213 L23.6351341,45.4184355 L23.6316068,45.5494369 L23.6627114,45.6765664 L24.140183,47.6361032 L24.2017509,48.573764 C24.2046369,48.6105476 24.3854925,50.3009829 24.4185211,50.6094494 L24.4185211,54.3487992 L24.2950647,55.6488113 L21.7941908,55.4655383 Z" id="Fill-20" fill="#FEFEFE" mask="url(#mask-4)"></path>
                        </g>
                    </g>
                </g>
            </g>
        </g>
    </g>
</svg>