<svg id="Layer_1" data-name="Layer 1" xmlns="http://www.w3.org/2000/svg" viewBox="0 0 179.91 27.69"><defs><style>.cls-1{fill:#fff;}.cls-2{fill:#ce7418;}.cls-3{fill:#005837;}</style></defs><title>MON_Horizontal_4C</title><path class="cls-1" d="M393.34,407.18v-1.74l-.1-.92,0-.47-.22-.92,0-.94.1-1,0-1.06,0-1.13,0-1.17.22-.93L393,395.6l-.19-1.08-.21-1.24,0-1.44-.05-1.57-.07-1.16-.07-1.31-.07-1.24-.15-1.15-.15-1.17h-1.7l-.7.23-1.3.24-.7.11-.7.23-.89.16-1.2-.27-.9-.11-.3,1.27-.1,1.39-.1,1.51-.15,1.39-.15,1.5-.06,1L383,394l.29.93.32,1s0,.52.06,1.11c0,.42,0,.87,0,1.21v2l.2,1.27.13,1.39-.22,1.74.2,1.62.1,1.07.09,1.13.53.35,1.3-.23,1.29-.47.95-.06,1.05-.06.7-.12,1.59.24,1.59.11Z" transform="translate(-216.89 -382.62)"/><path class="cls-2" d="M394.34,409l-.7.35-.9-.11-.6-.12H392l-.44.07-.42,0-1.53.08-1.48.08-1.39.08-1,.11-.66.06-.5.17-.48-.11-.4.35-.4.23-.55-.13.15-1.16.1-1.14a9.92,9.92,0,0,0-.1-1.26c0-.31,0-1.46,0-1.46l0-1.44-.2-1.6-.19-1.52-.1-1.11-.06-.62-.14-1.51-.11-1.41-.09-1.25L382,393.4l-.09-1.27,0-1.29,0-1.23,0-1.27,0-1.17,0-1.17.27-1.06.23-.91,1.1-.47H385l1.6.11.8.12,1.3-.34,1-.18,1-.17.7.12-.11-.6h.7l.81.48h1.44l.3,1-.74.25.05,1,0,.95,0,1.62.05,1.51v3l.3,1.39,0,1.4,0,1.34,0,1.32,0,1.33,0,1.33.11,1.13.16,1.46.13,1.33-.21,1.53-.1,1.39-.4.93Zm-1-1.85v-1.74l-.1-.92,0-.47-.22-.92,0-.94.1-1,0-1.06,0-1.13,0-1.17.22-.93L393,395.6l-.19-1.08-.21-1.24,0-1.44-.05-1.57-.07-1.16-.07-1.31-.07-1.24-.15-1.15-.15-1.17h-1.7l-.7.23-1.3.24-.7.11-.7.23-.89.16-1.2-.27-.9-.11-.3,1.27-.1,1.39-.1,1.51-.15,1.39-.15,1.5-.06,1L383,394l.29.93.32,1s0,.52.06,1.11c0,.42,0,.87,0,1.21v2l.2,1.27.13,1.39-.22,1.74.2,1.62.1,1.07.09,1.13.53.35,1.3-.23,1.29-.47.95-.06,1.05-.06.7-.12,1.59.24,1.59.11Z" transform="translate(-216.89 -382.62)"/><path class="cls-3" d="M387.27,388.94a1.83,1.83,0,0,0,1.29-.75,4.69,4.69,0,0,0,.49-3v-.05l0,0a4,4,0,0,0-1.84,1.63,2.85,2.85,0,0,0-.21,2v0h0l.28.11h0Z" transform="translate(-216.89 -382.62)"/><path class="cls-3" d="M391.51,389.18h-.13a2.38,2.38,0,0,0-1.49.22,3,3,0,0,0-1.08,2.28v0l0,0a1.15,1.15,0,0,0,1,.07c1.08-.45,1.67-2.46,1.69-2.55v0Z" transform="translate(-216.89 -382.62)"/><path class="cls-3" d="M388.89,395.85a1.94,1.94,0,0,0,1.57-.49,3.14,3.14,0,0,0,.75-2.59v0h0a2.71,2.71,0,0,0-1.82.84,2.74,2.74,0,0,0-.48,2.25v0Z" transform="translate(-216.89 -382.62)"/><path class="cls-3" d="M385.85,392a3.43,3.43,0,0,0,1.18,2,1.94,1.94,0,0,0,1.71.36h0v0a1.87,1.87,0,0,0,0-1.72c-.41-.6-1.39-.83-2.88-.68h0Z" transform="translate(-216.89 -382.62)"/><path class="cls-3" d="M388.34,399.7a3.34,3.34,0,0,0,2.54-.62,3.54,3.54,0,0,0,1-2.58v0h0a2.75,2.75,0,0,0-1.4.28,4.23,4.23,0,0,0-2.13,2.9l0,0Z" transform="translate(-216.89 -382.62)"/><path class="cls-3" d="M385,395a3.34,3.34,0,0,0,.76,2.81,2,2,0,0,0,1.82.64h0v0a2.15,2.15,0,0,0,.06-1.75,3.56,3.56,0,0,0-2.63-1.7h0Z" transform="translate(-216.89 -382.62)"/><path class="cls-3" d="M384.9,398.88a3.61,3.61,0,0,0,1.1,2.87,1.7,1.7,0,0,0,1.79.33h0v0a1.85,1.85,0,0,0,0-1.44,1.6,1.6,0,0,0-1.16-.78h0c-.45-.16-1.63-.65-1.68-1Z" transform="translate(-216.89 -382.62)"/><path class="cls-3" d="M391.52,399.39c-3,1-3,3.09-2.68,4.23v0h0a1.73,1.73,0,0,0,1.61-.23c.78-.59,1.16-2,1.09-4v-.06Z" transform="translate(-216.89 -382.62)"/><path class="cls-3" d="M389.69,405c-1.1-1.58-2.13-2.33-3.07-2.24s-1.7,1.25-1.92,1.74v0l0,0c2.07,1.41,4.93.53,5,.52l.05,0Z" transform="translate(-216.89 -382.62)"/><path class="cls-3" d="M392.48,403.11a4.4,4.4,0,0,0-3.23,1.86,3.85,3.85,0,0,0-.29,2.89v0h0c1.14-.13,3.11-1.53,3.52-4.74v0Z" transform="translate(-216.89 -382.62)"/><path class="cls-3" d="M385,388.43a3.66,3.66,0,0,0,1.74,2.06,1.78,1.78,0,0,0,.95.16h0a2.34,2.34,0,0,1,.71-.11h0l.05.06s0-.08,0-.08a1.74,1.74,0,0,0-.59-1.52,3.36,3.36,0,0,0-2.83-.61h0Z" transform="translate(-216.89 -382.62)"/><path class="cls-3" d="M387.07,388.76c.63,0,1.65,2.24,1.61,4.51a16.54,16.54,0,0,1-1.16,4.85,5.89,5.89,0,0,0-.41,1.44,2.76,2.76,0,0,0,.61,2.46h0a32.58,32.58,0,0,1,2,3.28l0,.06,0-.06.56-.85,0,0,0,0a11.12,11.12,0,0,1-1.61-2.07,4.26,4.26,0,0,1-.41-4.26l0-.14a14.72,14.72,0,0,0,1-4v-.09l-.07.06-.17.14.06,0c.31-1.45.26-4.57-2.11-6l-.07,0v.08l.07.62v0Z" transform="translate(-216.89 -382.62)"/><path class="cls-3" d="M390,404.5l-2-3,0,0h0l-.43.21,0,0,0,0,.55.85c.48.73.94,1.43,1.61,2.66l0,.08,0-.09.23-.76v0Z" transform="translate(-216.89 -382.62)"/><path class="cls-3" d="M396.11,407.07a.69.69,0,1,1-.69.69.69.69,0,0,1,.69-.69Zm0,.13a.56.56,0,1,0,.53.56.54.54,0,0,0-.53-.56Zm-.12,1h-.16v-.76l.25,0a.45.45,0,0,1,.26.06.21.21,0,0,1,.07.17.19.19,0,0,1-.15.18h0c.07,0,.11.07.12.19a.45.45,0,0,0,0,.19h-.17a.72.72,0,0,1,0-.2.13.13,0,0,0-.15-.11H396Zm0-.44h.08c.09,0,.16,0,.16-.11s0-.11-.16-.11H396Z" transform="translate(-216.89 -382.62)"/><path class="cls-3" d="M230.63,393.06h-.19l-4.27,11h-.77l-4.26-11H221l-.75,7.81c-.17,1.51.23,2.46,1.75,2.52V404h-5.09v-.65c1.34,0,2-.59,2.2-2.55l1-8.72a2.46,2.46,0,0,0-2-.58v-.64h5l3.45,9.22,3.58-9.22h5.05v.64c-1,0-1.93.27-1.93,1.48,0,.17.08,1.15.08,1.29l.61,6.37c.25,2.44,1.15,2.6,2.31,2.71V404h-6.8v-.65c1.28-.07,1.9-.34,1.9-1.88l0-1Z" transform="translate(-216.89 -382.62)"/><path class="cls-3" d="M265.22,394.36c0-1.37,0-2.64-2.48-2.82v-.64h4.52l8.37,9.67v-6.79c0-2-.83-2.17-2.21-2.24v-.64h5.39v.64c-1.39.08-2.16.27-2.16,2.24v10.55h-1.27l-9.12-10.63v7.51c0,1.24.47,2.19,1.87,2.19h.52V404h-5.56v-.65c1.33-.06,2.13-.43,2.13-2.26Z" transform="translate(-216.89 -382.62)"/><path class="cls-3" d="M321.4,394.36c0-1.37,0-2.64-2.47-2.82v-.64h4.51l8.38,9.67v-6.79c0-2-.83-2.17-2.2-2.24v-.64H335v.64c-1.39.08-2.17.27-2.17,2.24v10.55h-1.27l-9.12-10.63v7.51c0,1.24.47,2.19,1.87,2.19h.53V404h-5.58v-.65c1.33-.06,2.13-.43,2.13-2.26Z" transform="translate(-216.89 -382.62)"/><path class="cls-3" d="M249.29,404.32c-5,0-7.73-3.41-7.73-6.88,0-3.67,2.89-6.87,7.61-6.87s8,2.92,8,6.91C257.14,401,254.18,404.32,249.29,404.32Zm0-12.75c-3.23,0-4.9,2.61-4.9,5.94,0,3.5,1.9,5.81,4.9,5.81,2.21,0,5-1.37,5-5.87C254.28,392.65,251.34,391.57,249.31,391.57Z" transform="translate(-216.89 -382.62)"/><path class="cls-3" d="M365.63,404.31c-5,0-7.72-3.4-7.72-6.87,0-3.68,2.89-6.89,7.61-6.89s8,2.93,8,6.92C373.48,401,370.53,404.31,365.63,404.31Zm0-12.75c-3.23,0-4.9,2.61-4.9,5.95,0,3.5,1.9,5.8,4.9,5.8,2.2,0,5-1.36,5-5.86C370.63,392.65,367.69,391.56,365.66,391.56Z" transform="translate(-216.89 -382.62)"/><path class="cls-3" d="M347.82,401.12c0,2,.77,2.13,2.14,2.26V404h-7v-.64c1.42-.13,2.17-.27,2.17-2.26v-9.32h-1.78c-2.27,0-2.49,1.65-2.58,2.59h-.73l.16-4.16h.58c.25.47.86.65,2,.65h7.31c1.17,0,1.75-.17,2-.65h.58l.16,4.16h-.73c-.1-1-.31-2.59-2.59-2.59h-1.78Z" transform="translate(-216.89 -382.62)"/><path class="cls-3" d="M303.07,401.24a4.4,4.4,0,0,0-.26,1.06c0,1,1.06,1,1.64,1.09V404h-5v-.64c1.52-.06,1.91-.73,2.7-2.76l3.81-10h2.35l3.7,10.06c.77,2.06,1.14,2.58,2.77,2.66V404h-6.53v-.64c.75,0,1.57-.11,1.57-.83a3.78,3.78,0,0,0-.24-.93l-.94-2.53h-4.77Zm5.26-3.09-1.93-5.66h-.1l-2.12,5.66Z" transform="translate(-216.89 -382.62)"/><path class="cls-3" d="M293.82,394.38h-.76a3.31,3.31,0,0,0-3.14-2.93c-1.65,0-2.32.88-2.32,1.73,0,1.42,1.53,2,3.36,2.86,2.43,1.12,3.57,2.47,3.57,4.56,0,1.86-1.4,3.71-4.68,3.71-1.86,0-2.65-.66-3.36-.66-.33,0-.52.3-.61.58h-.64V400H286a3.45,3.45,0,0,0,3.39,3.33c1.74,0,2.73-.94,2.73-2.11s-.7-2.07-3.49-3.36c-1.48-.68-3.32-1.6-3.32-3.94,0-1.44,1.23-3.4,4.22-3.4a17.33,17.33,0,0,1,3.1.56.59.59,0,0,0,.59-.5h.62Z" transform="translate(-216.89 -382.62)"/></svg>